<?xml version="1.0" encoding="utf-8"?>
<!-- Generator: Adobe Illustrator 27.2.0, SVG Export Plug-In . SVG Version: 6.00 Build 0)  -->
<svg version="1.1" xmlns="http://www.w3.org/2000/svg" xmlns:xlink="http://www.w3.org/1999/xlink" x="0px" y="0px"
	 viewBox="0 0 438 204" style="enable-background:new 0 0 438 204;" xml:space="preserve">
<style type="text/css">
	.st0{fill:#FFFFFF;}
	.st1{opacity:0;}

	.foldedCorner {
		fill:#FFFFFF;
	}

	@keyframes leftSmallDocSlide {
		0%   { transform: translateX(0); }
		100% { transform: translateX(75px); }
	}

	@keyframes rightSmallDocSlide {
		0%   { transform: translateX(0); }
		100% { transform: translateX(-75px); }
	}

	@keyframes bigDocTopSlide {
		0%   { transform: translateX(0); }
		100% { transform: translateX(118px); }
	}

	@keyframes bigDocTopShortSlide {
		0%   { transform: translateX(0); }
		100% { transform: translateX(95px); }
	}

	@keyframes bigDocBottomSlide {
		0%   { transform: translateX(0); }
		100% { transform: translateX(-118px); }
	}

	#slideTextGroupLeftDoc .slideLine.animate {
		animation-name: leftSmallDocSlide;
	}

	#slideTextGroupRightDoc .slideLine.animate {
		animation-name: rightSmallDocSlide;
	}

	#slideTextGroupBigDoc .slideLine.top.animate {
		animation-name: bigDocTopSlide;
	}

	#slideTextGroupBigDoc .slideLine.top.short.animate {
		animation-name: bigDocTopShortSlide;
	}

	#slideTextGroupBigDoc .slideLine.bottom.animate {
		animation-name: bigDocBottomSlide;
	}

	.slideLine.animate {
		animation-duration: 400ms;
		animation-fill-mode: forwards;
		animation-iteration-count: 1;
		animation-timing-function: ease-in-out;
	}
	
	#left_small_doc,
	#right_small_doc {
		transition: opacity 400ms, transform 400ms
	}

	#left_small_doc.hide,
	#right_small_doc.hide {
		opacity: 0;
		transform: translateY(20px);
	}

	#fallWrap,
	.rotateWrap {
		transition-property: transform;
		transition-timing-function: ease-in;
	}

	#fallWrap {
		transition-duration: 1000ms;
		transition-delay: 2000ms;
	}

	.rotateWrap {
		transition-duration: 700ms;
		transition-delay: 2100ms;
	}

	#fallWrap.scatter {
		transform: translateY(300px);
	}

	@keyframes blink {
		0%     { fill: transparent; }
		50%    { fill: transparent; }
		50.01% { fill: #000; }
		100%   { fill: #000; }
	}

	#splashBlinkingCursor {
		fill: transparent;
	}

	#splashBlinkingCursor.blink {
		animation: blink 1s linear infinite;
	}

	@keyframes write {
		0% {
			transform: translateX(0);
			opacity: 1;
		}
		99% {
			transform: translateX(88px);
			opacity: 1;
		}
		100% {
			transform: translateX(88px);
			opacity: 0;
		}
	}

	@keyframes writeShort {
		0% {
			transform: translateX(0);
			opacity: 1;
		}
		99% {
			transform: translateX(61px);
			opacity: 1;
		}
		100% {
			transform: translateX(61px);
			opacity: 0;
		}
	}

	.writeLine.animate {
		animation: write 400ms ease-out 1 forwards;
	}

	.writeLine.short.animate {
		animation: writeShort 300ms ease-out 1 forwards;
	}

	.writeLine.short.animate + .writeLine.short.animate {
		animation-delay: 300ms;
	}

	.writeWhiteBar {
		fill: #fff;
	}

	@keyframes showWriteCursor {
		0%   { opacity: 1; }
		100% { opacity: 1; }
	}

	.writeCursor {
		opacity: 0;
		fill: #000;
	}

	.writeLine.animate .writeCursor {
		animation: showWriteCursor 400ms linear 1;
	}

	.writeLine.animate.short .writeCursor {
		animation: showWriteCursor 300ms linear 1;
	}

	.writeLine.animate.short + .writeLine.animate.short .writeCursor {
		animation-delay: 300ms;
	}

	@keyframes whiteOut1 {
		0% {
			opacity: 1;
			transform: translateX(0);
		}
		100% {
			opacity: 1;
			transform: translateX(30px);
		}
	}

	@keyframes whiteOut2 {
		0% {
			opacity: 1;
			transform: translateX(0);
		}
		100% {
			opacity: 1;
			transform: translateX(-30px);
		}
	}

	@keyframes whiteOut3 {
		0% {
			opacity: 1;
			transform: translateX(0);
		}
		100% {
			opacity: 1;
			transform: translateX(44px);
		}
	}

	@keyframes whiteOut4 {
		0% {
			opacity: 1;
			transform: translateX(0);
		}
		100% {
			opacity: 1;
			transform: translateX(-40px);
		}
	}

	@keyframes whiteOut5 {
		0% {
			opacity: 1;
			transform: translateX(0);
		}
		100% {
			opacity: 1;
			transform: translateX(-30px);
		}
	}

	@keyframes whiteOut6 {
		0% {
			opacity: 1;
			transform: translateX(0);
		}
		100% {
			opacity: 1;
			transform: translateX(40px);
		}
	}

	@keyframes whiteOut7 {
		0% {
			opacity: 1;
			transform: translateX(0);
		}
		100% {
			opacity: 1;
			transform: translateX(-30px);
		}
	}

	.whiteOutGroup {
		opacity: 0;
		animation-timing-function: ease-out;
		animation-fill-mode: forwards;
		animation-iteration-count: 1
	}

	#whiteOutGroup1.whiteOutAnimate {
		animation-name: whiteOut1;
	}

	#whiteOutGroup2.whiteOutAnimate {
		animation-name: whiteOut2;
	}

	#whiteOutGroup3.whiteOutAnimate {
		animation-name: whiteOut3;
	}

	#whiteOutGroup4.whiteOutAnimate {
		animation-name: whiteOut4;
	}

	#whiteOutGroup5.whiteOutAnimate {
		animation-name: whiteOut5;
	}

	#whiteOutGroup6.whiteOutAnimate {
		animation-name: whiteOut6;
	}

	#whiteOutGroup7.whiteOutAnimate {
		animation-name: whiteOut7;
	}

	.whiteOut {
		fill: #FFFFFF;
	}

	@keyframes whiteOutCursor {
		0%   { opacity: 1; }
		99%  { opacity: 1; }
		100% { opacity: 0; }
	}

	.whiteOutAnimate .whiteOutCursor {
		animation-name: whiteOutCursor;
		animation-fill-mode: forwards;
		animation-iteration-count: 1
	}

	#lastTextGroup {
		transition: opacity 500ms, transform 500ms;
	}

	#lastTextGroup.hide {
		opacity: 0;
		transform: translateY(10px);
	}

	#cloudGroup {
		opacity: 0;
		transform: translateY(0);
		transition: opacity 400ms, transform 400ms;
	}

	#cloudGroup.visible {
		opacity: 1;
		transform: translateY(-15px);
	}

	#animatedDocsPageWrap .removed {
		display: none;
	} 
</style>
<g id="animatedDocsPageWrap">
	<g id="bigDoc">
		<g id="lastTextGroup">
			<g id="baseTextGroup">
				<rect x="169" y="23" width="67" height="3"/>
				<rect x="169" y="39" width="67" height="3"/>
				<rect x="169" y="55" width="90" height="3"/>
				<rect x="169" y="70" width="90" height="3"/>
				<rect x="169" y="86" width="90" height="3"/>
				<rect x="169" y="102" width="90" height="3"/>
				<rect x="169" y="118" width="90" height="3"/>
				<rect x="169" y="133" width="90" height="3"/>
				<rect x="169" y="149" width="90" height="3"/>
				<rect x="169" y="165" width="90" height="3"/>
			</g>
			<g id="whiteOutGroups">
				<g mask="url(#whiteOutMask1)">
					<g id="whiteOutGroup1" class="whiteOutGroup">
						<rect class="whiteOut" x="139" y="21" width="33" height="7"/>
						<rect class="whiteOutCursor" x="169" y="21" width="3" height="7"/>
					</g>
				</g>
				
				<g mask="url(#whiteOutMask2)">
					<g id="whiteOutGroup2" class="whiteOutGroup">
						<rect class="whiteOut" x="199" y="53" width="33" height="7"/>
						<rect class="whiteOutCursor" x="199" y="53" width="3" height="7"/>
					</g>
				</g>

				<g mask="url(#whiteOutMask3)">
					<g id="whiteOutGroup3" class="whiteOutGroup">
						<rect class="whiteOut" x="168" y="68" width="47" height="7"/>
						<rect class="whiteOutCursor" x="212" y="68" width="3" height="7"/>
					</g>
				</g>

				<g mask="url(#whiteOutMask4)">
					<g id="whiteOutGroup4" class="whiteOutGroup">
						<rect class="whiteOut" x="209" y="116" width="43" height="7"/>
						<rect class="whiteOutCursor" x="209" y="116" width="3" height="7"/>
					</g>
				</g>
				
				<g mask="url(#whiteOutMask5)">
					<g id="whiteOutGroup5" class="whiteOutGroup">
						<rect class="whiteOut" x="256" y="116" width="33" height="7"/>
						<rect class="whiteOutCursor" x="256" y="116" width="3" height="7"/>
					</g>
				</g>
				
				<g mask="url(#whiteOutMask6)">
					<g id="whiteOutGroup6" class="whiteOutGroup">
						<rect class="whiteOut" x="129" y="131" width="43" height="7"/>
						<rect class="whiteOutCursor" x="169" y="131" width="3" height="7"/>
					</g>
				</g>
				
				<g mask="url(#whiteOutMask7)">
					<g id="whiteOutGroup7" class="whiteOutGroup">
						<rect class="whiteOut" x="256" y="163" width="33" height="7"/>
						<rect class="whiteOutCursor" x="256" y="163" width="3" height="7"/>
					</g>
				</g>
			</g>
		</g>
		<g id="writeTextGroup" mask="url(#mainDocMask)">
			<g class="writeLine short">
				<rect class="writeWhiteBar" x="169" y="21" width="67" height="7"/>
				<rect class="writeCursor" x="169" y="21" width="3" height="7"/>
			</g>
			<g class="writeLine short">
				<rect class="writeWhiteBar" x="169" y="37" width="67" height="7"/>
				<rect class="writeCursor" x="169" y="37" width="3" height="7"/>
			</g>
			<g class="writeLine">
				<rect class="writeWhiteBar" x="169" y="53" width="90" height="7"/>
				<rect class="writeCursor" x="169" y="53" width="3" height="7"/>
			</g>
			<g class="writeLine">
				<rect class="writeWhiteBar" x="169" y="68" width="90" height="7"/>
				<rect class="writeCursor" x="169" y="68" width="3" height="7"/>
			</g>
			<g class="writeLine">
				<rect class="writeWhiteBar" x="169" y="84" width="90" height="7"/>
				<rect class="writeCursor" x="169" y="84" width="3" height="7"/>
			</g>
			<g class="writeLine">
				<rect class="writeWhiteBar" x="169" y="100" width="90" height="7"/>
				<rect class="writeCursor" x="169" y="100" width="3" height="7"/>
			</g>
			<g class="writeLine">
				<rect class="writeWhiteBar" x="169" y="116" width="90" height="7"/>
				<rect class="writeCursor" x="169" y="116" width="3" height="7"/>
			</g>
			<g class="writeLine">
				<rect class="writeWhiteBar" x="169" y="131" width="90" height="7"/>
				<rect class="writeCursor" x="169" y="131" width="3" height="7"/>
			</g>
			<g class="writeLine">
				<rect class="writeWhiteBar" x="169" y="147" width="90" height="7"/>
				<rect class="writeCursor" x="169" y="147" width="3" height="7"/>
			</g>
			<g class="writeLine">
				<rect class="writeWhiteBar" x="169" y="163" width="90" height="7"/>
				<rect class="writeCursor" x="169" y="163" width="3" height="7"/>
			</g>
		</g>
		<g id="slideTextGroupBigDoc" mask="url(#mainDocMask)">
			<g id="fallWrap">
				<g class="rotateWrap">
					<rect class="slideLine top short" x="74" y="23" width="67" height="3"/>
				</g>
				<g class="rotateWrap">
					<rect class="slideLine top short" x="74" y="39" width="67" height="3"/>
				</g>
				<g class="rotateWrap">
					<rect class="slideLine top" x="51" y="55" width="90" height="3"/>
				</g>
				<g class="rotateWrap">
					<rect class="slideLine top" x="51" y="70" width="90" height="3"/>
				</g>
				<g class="rotateWrap">
					<rect class="slideLine top" x="51" y="86" width="90" height="3"/>
				</g>
				<g class="rotateWrap">
					<rect class="slideLine bottom" x="287" y="102" width="90" height="3"/>
				</g>
				<g class="rotateWrap">
					<rect class="slideLine bottom" x="287" y="118" width="90" height="3"/>
				</g>
				<g class="rotateWrap">
					<rect class="slideLine bottom" x="287" y="133" width="90" height="3"/>
				</g>
				<g class="rotateWrap">
					<rect class="slideLine bottom" x="287" y="149" width="90" height="3"/>
				</g>
				<g class="rotateWrap">
					<rect class="slideLine bottom" x="287" y="165" width="90" height="3"/>
				</g>
			</g>
		</g>
		<rect id="splashBlinkingCursor" x="169" y="21" width="3" height="7"/>
		<g id="cloudGroup">
			<path id="cloudOutline" d="M247.1,125.3c-1.4-7.3-7.8-12.7-15.2-12.7c-2.2,0-4.4,0.5-6.4,1.4c-3.1-9.1-11.5-15.3-21.1-15.3
				c-12.3,0-22.3,10.1-22.3,22.6c0,1.1,0.1,2.2,0.2,3.3c-3.8,1.4-6.4,5.1-6.4,9.3c0,4.7,3.2,8.6,7.6,9.7l25.4,0V141h-23.5l-0.5,0.1
				c-3.7-0.4-6.5-3.5-6.5-7.3c0-3.4,2.3-6.4,5.6-7.2l1.2-0.3l-0.2-1.2c-0.3-1.3-0.4-2.6-0.4-3.9c0-11.1,8.9-20.1,19.8-20.1
				c9,0,16.8,6.1,19.1,14.9l0.4,1.6l1.4-0.8c2-1.2,4.2-1.8,6.5-1.8c6.4,0,11.9,4.9,12.8,11.3l0.1,0.9l0.9,0.2
				c3.2,0.7,5.5,3.5,5.5,6.8c0,3.6-2.6,6.4-6.1,6.8l-0.4-0.1H218v2.6l28.5,0c4.2-1,7.2-4.8,7.2-9.2
				C253.7,130.2,251,126.5,247.1,125.3z"/>
			<polygon id="cloudArrow" points="215,152.5 215,131.6 219.5,136.7 221.9,134.6 213.5,125.1 205.1,134.6 207.5,136.7 212,131.6 
				212,152.5 207.5,147.4 205.1,149.5 213.5,159 221.9,149.5 219.5,147.4 		"/>
		</g>

		<rect x="246" width="41" height="41" class="foldedCorner"/>
		<g>
			<path d="M246,41V0H141v196h146V41H246z M286,195H142V1h103v39.8V42h1h40V195z"/>
			<polygon points="248,0 247,0 287,39.8 287,38.8 		"/>
		</g>
		<g>
			<polygon points="295,42 295,41 294,41 294,42 293,42 293,43 294,43 294,44 295,44 295,43 296,43 296,42 		"/>
			<polygon points="295,51 294,51 294,52 293,52 293,53 294,53 294,54 295,54 295,53 296,53 296,52 295,52 		"/>
			<polygon points="295,61 294,61 294,62 293,62 293,63 294,63 294,64 295,64 295,63 296,63 296,62 295,62 		"/>
			<polygon points="295,71 294,71 294,72 293,72 293,73 294,73 294,74 295,74 295,73 296,73 296,72 295,72 		"/>
			<polygon points="295,81 294,81 294,82 293,82 293,83 294,83 294,84 295,84 295,83 296,83 296,82 295,82 		"/>
			<polygon points="295,91 294,91 294,92 293,92 293,93 294,93 294,94 295,94 295,93 296,93 296,92 295,92 		"/>
			<polygon points="295,101 294,101 294,102 293,102 293,103 294,103 294,104 295,104 295,103 296,103 296,102 295,102 		"/>
			<polygon points="295,111 294,111 294,112 293,112 293,113 294,113 294,114 295,114 295,113 296,113 296,112 295,112 		"/>
			<polygon points="295,121 294,121 294,122 293,122 293,123 294,123 294,124 295,124 295,123 296,123 296,122 295,122 		"/>
			<polygon points="295,131 294,131 294,132 293,132 293,133 294,133 294,134 295,134 295,133 296,133 296,132 295,132 		"/>
			<polygon points="295,141 294,141 294,142 293,142 293,143 294,143 294,144 295,144 295,143 296,143 296,142 295,142 		"/>
			<polygon points="295,151 294,151 294,152 293,152 293,153 294,153 294,154 295,154 295,153 296,153 296,152 295,152 		"/>
			<polygon points="295,161 294,161 294,162 293,162 293,163 294,163 294,164 295,164 295,163 296,163 296,162 295,162 		"/>
			<polygon points="295,171 294,171 294,172 293,172 293,173 294,173 294,174 295,174 295,173 296,173 296,172 295,172 		"/>
			<polygon points="295,181 294,181 294,182 293,182 293,183 294,183 294,184 295,184 295,183 296,183 296,182 295,182 		"/>
			<polygon points="295,191 294,191 294,192 293,192 293,193 294,193 294,194 295,194 295,193 296,193 296,192 295,192 		"/>
			<polygon points="295,201 294,201 294,202 293,202 293,203 294,203 294,204 295,204 295,203 296,203 296,202 295,202 		"/>
			<polygon points="285,201 284,201 284,202 283,202 283,203 284,203 284,204 285,204 285,203 286,203 286,202 285,202 		"/>
			<polygon points="275,201 274,201 274,202 273,202 273,203 274,203 274,204 275,204 275,203 276,203 276,202 275,202 		"/>
			<polygon points="265,201 264,201 264,202 263,202 263,203 264,203 264,204 265,204 265,203 266,203 266,202 265,202 		"/>
			<polygon points="255,201 254,201 254,202 253,202 253,203 254,203 254,204 255,204 255,203 256,203 256,202 255,202 		"/>
			<polygon points="245,201 244,201 244,202 243,202 243,203 244,203 244,204 245,204 245,203 246,203 246,202 245,202 		"/>
			<polygon points="235,201 234,201 234,202 233,202 233,203 234,203 234,204 235,204 235,203 236,203 236,202 235,202 		"/>
			<polygon points="225,201 224,201 224,202 223,202 223,203 224,203 224,204 225,204 225,203 226,203 226,202 225,202 		"/>
			<polygon points="215,201 214,201 214,202 213,202 213,203 214,203 214,204 215,204 215,203 216,203 216,202 215,202 		"/>
			<polygon points="205,201 204,201 204,202 203,202 203,203 204,203 204,204 205,204 205,203 206,203 206,202 205,202 		"/>
			<polygon points="195,201 194,201 194,202 193,202 193,203 194,203 194,204 195,204 195,203 196,203 196,202 195,202 		"/>
			<polygon points="185,201 184,201 184,202 183,202 183,203 184,203 184,204 185,204 185,203 186,203 186,202 185,202 		"/>
			<polygon points="175,201 174,201 174,202 173,202 173,203 174,203 174,204 175,204 175,203 176,203 176,202 175,202 		"/>
			<polygon points="165,201 164,201 164,202 163,202 163,203 164,203 164,204 165,204 165,203 166,203 166,202 165,202 		"/>
			<polygon points="155,201 154,201 154,202 153,202 153,203 154,203 154,204 155,204 155,203 156,203 156,202 155,202 		"/>
			<polygon points="145,201 144,201 144,202 143,202 143,203 144,203 144,204 145,204 145,203 146,203 146,202 145,202 		"/>
		</g>
	</g>
	<g id="right_small_doc">
		<g>
			<polygon points="437,72 437,71 436,71 436,72 435,72 435,73 436,73 436,74 437,74 437,73 438,73 438,72 		"/>
			<polygon points="437,81 436,81 436,82 435,82 435,83 436,83 436,84 437,84 437,83 438,83 438,82 437,82 		"/>
			<polygon points="437,91 436,91 436,92 435,92 435,93 436,93 436,94 437,94 437,93 438,93 438,92 437,92 		"/>
			<polygon points="437,101 436,101 436,102 435,102 435,103 436,103 436,104 437,104 437,103 438,103 438,102 437,102 		"/>
			<polygon points="437,111 436,111 436,112 435,112 435,113 436,113 436,114 437,114 437,113 438,113 438,112 437,112 		"/>
			<polygon points="437,121 436,121 436,122 435,122 435,123 436,123 436,124 437,124 437,123 438,123 438,122 437,122 		"/>
			<polygon points="437,131 436,131 436,132 435,132 435,133 436,133 436,134 437,134 437,133 438,133 438,132 437,132 		"/>
			<polygon points="437,141 436,141 436,142 435,142 435,143 436,143 436,144 437,144 437,143 438,143 438,142 437,142 		"/>
			<polygon points="437,151 436,151 436,152 435,152 435,153 436,153 436,154 437,154 437,153 438,153 438,152 437,152 		"/>
			<polygon points="437,161 436,161 436,162 435,162 435,163 436,163 436,164 437,164 437,163 438,163 438,162 437,162 		"/>
			<polygon points="437,171 436,171 436,172 435,172 435,173 436,173 436,174 437,174 437,173 438,173 438,172 437,172 		"/>
			<polygon points="427,171 426,171 426,172 425,172 425,173 426,173 426,174 427,174 427,173 428,173 428,172 427,172 		"/>
			<polygon points="417,171 416,171 416,172 415,172 415,173 416,173 416,174 417,174 417,173 418,173 418,172 417,172 		"/>
			<polygon points="407,171 406,171 406,172 405,172 405,173 406,173 406,174 407,174 407,173 408,173 408,172 407,172 		"/>
			<polygon points="397,171 396,171 396,172 395,172 395,173 396,173 396,174 397,174 397,173 398,173 398,172 397,172 		"/>
			<polygon points="387,171 386,171 386,172 385,172 385,173 386,173 386,174 387,174 387,173 388,173 388,172 387,172 		"/>
			<polygon points="377,171 376,171 376,172 375,172 375,173 376,173 376,174 377,174 377,173 378,173 378,172 377,172 		"/>
			<polygon points="367,171 366,171 366,172 365,172 365,173 366,173 366,174 367,174 367,173 368,173 368,172 367,172 		"/>
			<polygon points="357,171 356,171 356,172 355,172 355,173 356,173 356,174 357,174 357,173 358,173 358,172 357,172 		"/>
			<polygon points="347,171 346,171 346,172 345,172 345,173 346,173 346,174 347,174 347,173 348,173 348,172 347,172 		"/>
		</g>
		<g id="slideTextGroupRightDoc" mask="url(#rightLinesMask)">
			<rect class="slideLine" x="357" y="66" width="36" height="3"/>
			<rect class="slideLine" x="357" y="81" width="56" height="3"/>
			<rect class="slideLine" x="357" y="96" width="56" height="3"/>
			<rect class="slideLine" x="357" y="111" width="56" height="3"/>
			<rect class="slideLine" x="357" y="126" width="56" height="3"/>
			<rect class="slideLine" x="357" y="141" width="56" height="3"/>
		</g>
		<rect x="404" y="46" width="26" height="26" class="foldedCorner"/>
		<g>
			<path d="M404,72V46h-64v120h90V72H404z M429,165h-88V47h62v26h26V165z"/>
			<polygon points="405,46 430,71 430,70 406,46 		"/>
		</g>
	</g>
	<g id="left_small_doc">
		<g>
			<polygon points="97,72 97,71 96,71 96,72 95,72 95,73 96,73 96,74 97,74 97,73 98,73 98,72 		"/>
			<polygon points="97,81 96,81 96,82 95,82 95,83 96,83 96,84 97,84 97,83 98,83 98,82 97,82 		"/>
			<polygon points="97,91 96,91 96,92 95,92 95,93 96,93 96,94 97,94 97,93 98,93 98,92 97,92 		"/>
			<polygon points="97,101 96,101 96,102 95,102 95,103 96,103 96,104 97,104 97,103 98,103 98,102 97,102 		"/>
			<polygon points="97,111 96,111 96,112 95,112 95,113 96,113 96,114 97,114 97,113 98,113 98,112 97,112 		"/>
			<polygon points="97,121 96,121 96,122 95,122 95,123 96,123 96,124 97,124 97,123 98,123 98,122 97,122 		"/>
			<polygon points="97,131 96,131 96,132 95,132 95,133 96,133 96,134 97,134 97,133 98,133 98,132 97,132 		"/>
			<polygon points="97,141 96,141 96,142 95,142 95,143 96,143 96,144 97,144 97,143 98,143 98,142 97,142 		"/>
			<polygon points="97,151 96,151 96,152 95,152 95,153 96,153 96,154 97,154 97,153 98,153 98,152 97,152 		"/>
			<polygon points="97,161 96,161 96,162 95,162 95,163 96,163 96,164 97,164 97,163 98,163 98,162 97,162 		"/>
			<polygon points="97,171 96,171 96,172 95,172 95,173 96,173 96,174 97,174 97,173 98,173 98,172 97,172 		"/>
			<polygon points="87,171 86,171 86,172 85,172 85,173 86,173 86,174 87,174 87,173 88,173 88,172 87,172 		"/>
			<polygon points="77,171 76,171 76,172 75,172 75,173 76,173 76,174 77,174 77,173 78,173 78,172 77,172 		"/>
			<polygon points="67,171 66,171 66,172 65,172 65,173 66,173 66,174 67,174 67,173 68,173 68,172 67,172 		"/>
			<polygon points="57,171 56,171 56,172 55,172 55,173 56,173 56,174 57,174 57,173 58,173 58,172 57,172 		"/>
			<polygon points="47,171 46,171 46,172 45,172 45,173 46,173 46,174 47,174 47,173 48,173 48,172 47,172 		"/>
			<polygon points="37,171 36,171 36,172 35,172 35,173 36,173 36,174 37,174 37,173 38,173 38,172 37,172 		"/>
			<polygon points="27,171 26,171 26,172 25,172 25,173 26,173 26,174 27,174 27,173 28,173 28,172 27,172 		"/>
			<polygon points="17,171 16,171 16,172 15,172 15,173 16,173 16,174 17,174 17,173 18,173 18,172 17,172 		"/>
			<polygon points="7,171 6,171 6,172 5,172 5,173 6,173 6,174 7,174 7,173 8,173 8,172 7,172 		"/>
		</g>
		<g id="slideTextGroupLeftDoc" mask="url(#leftLinesMask)">
			<rect class="slideLine" x="17" y="66" width="36" height="3"/>
			<rect class="slideLine" x="17" y="81" width="56" height="3"/>
			<rect class="slideLine" x="17" y="96" width="56" height="3"/>
			<rect class="slideLine" x="17" y="111" width="56" height="3"/>
			<rect class="slideLine" x="17" y="126" width="56" height="3"/>
			<rect class="slideLine" x="17" y="141" width="56" height="3"/>
		</g>
		<rect x="64" y="46" width="26" height="26" class="foldedCorner"/>
		<g>
			<path d="M64,72V46H0v120h90V72H64z M89,165H1V47h62v26h26V165z"/>
			<polygon points="65,46 90,71 90,70 66,46 		"/>
		</g>
	</g>
	
	<defs>
		<mask id="leftLinesMask">
			<rect x="0" y="50" class="mask" width="89" height="110" fill="#FFFFFF"/>
		</mask>
		<mask id="mainDocMask">
			<rect x="142" y="1" class="mask" width="144" height="194" fill="#FFFFFF"/>
		</mask>
		<mask id="rightLinesMask">
			<rect x="340" y="50" class="mask" width="89" height="110" fill="#FFFFFF"/>
		</mask>
		<mask id="whiteOutMask1">
			<rect class="whiteOutMask" x="169" y="21" width="33" height="7" fill="#FFFFFF"/>
		</mask>
		<mask id="whiteOutMask2">
			<rect class="whiteOutMask" x="169" y="53" width="33" height="7" fill="#FFFFFF"/>
		</mask>
		<mask id="whiteOutMask3">
			<rect class="whiteOutMask" x="212" y="68" width="47" height="7" fill="#FFFFFF"/>
		</mask>
		<mask id="whiteOutMask4">
			<rect class="whiteOutMask" x="169" y="116" width="43" height="7" fill="#FFFFFF"/>
		</mask>
		<mask id="whiteOutMask5">
			<rect class="whiteOutMask" x="226" y="116" width="33" height="7" fill="#FFFFFF"/>
		</mask>
		<mask id="whiteOutMask6">
			<rect class="whiteOutMask" x="169" y="131" width="43" height="7" fill="#FFFFFF"/>
		</mask>
		<mask id="whiteOutMask7">
			<rect class="whiteOutMask" x="226" y="163" width="33" height="7" fill="#FFFFFF"/>
		</mask>
	</defs>
</g>

<script type="text/ecmascript">
  <![CDATA[
    window.onload = function() {
			let slideAnimationTime = 0;
			const scene1Delay = 1500;
			const scene2Delay = scene1Delay + slideAnimationTime + 1700;
			const scene3Delay = scene2Delay + 3000;
			const scene4Delay = scene3Delay + 3000;
			const scene5Delay = scene4Delay + 4500;
			const scene6Delay = scene5Delay + 3300;
			const scene7Delay = scene6Delay + 1500;
			const scene8Delay = scene7Delay + 3500;

			let scene1timer;
			let scene2timer;
			let scene3timer;
			let scene4timer;
			let scene5timer;
			let scene6timer;
			let scene7timer;
			let scene8timer;

			const getRandomDeg = () => Math.floor(Math.random() * (90 - -90 + 1)) + -90;

			function addAnimationDelay(elems, initDelay = 0) {
				const delayAmount = 100; 
				elems.forEach((elem, index) => {
					const time = delayAmount * index + initDelay;
					slideAnimationTime = time + 400 > slideAnimationTime ? time + 400 : slideAnimationTime;
					elem.style.animationDelay = `${time}ms`;
				})
			}

			const animatedDocsPageWrap = document.getElementById("animatedDocsPageWrap");

			// scene 1
			const slideLines = document.querySelectorAll(".slideLine");
      const leftSlideLines = document.querySelectorAll("#slideTextGroupLeftDoc .slideLine");
			const rightSlideLines = document.querySelectorAll("#slideTextGroupRightDoc .slideLine");
			const bigDocTopSlideLines = document.querySelectorAll("#slideTextGroupBigDoc .slideLine.top");
			const bigDocBottomSlideLines = document.querySelectorAll("#slideTextGroupBigDoc .slideLine.bottom");
			addAnimationDelay(leftSlideLines);
			addAnimationDelay(rightSlideLines);
			addAnimationDelay(bigDocTopSlideLines, 150);
			addAnimationDelay(bigDocBottomSlideLines, 150);

			// scene 2
			const bigDocSlideLines = document.querySelectorAll(".rotateWrap");
			const leftSmallDoc = document.getElementById("left_small_doc");
			const rightSmallDoc = document.getElementById("right_small_doc");
			const fallWrap = document.getElementById("fallWrap");
			bigDocSlideLines.forEach(slideLine => {
				const transformOriginY = slideLine.querySelector(".slideLine").getAttribute("y");
				slideLine.style.transformOrigin = `188px ${transformOriginY}px`;
			});

			// scene 3
			const blinkingCursor = document.getElementById("splashBlinkingCursor");

			// scene 4
			// blinkingCursor
			const longWriteLines = document.querySelectorAll("#writeTextGroup .writeLine:not(.short)");
			const writeLines = document.querySelectorAll("#writeTextGroup .writeLine");
			longWriteLines.forEach((writeLine, index) => {
				const delay = `${index * 400 + 600}ms`;
				const writeCursor = writeLine.querySelector(".writeCursor");
				writeLine.style.animationDelay = delay;
				writeCursor.style.animationDelay = delay;
			});

			// scene 5
			const whiteOuts = [
				{elem: document.getElementById("whiteOutGroup1"), x: 30},
				{elem: document.getElementById("whiteOutGroup2"), x: -30},
				{elem: document.getElementById("whiteOutGroup3"), x: 44},
				{elem: document.getElementById("whiteOutGroup4"), x: -40},
				{elem: document.getElementById("whiteOutGroup5"), x: -30},
				{elem: document.getElementById("whiteOutGroup6"), x: 40},
				{elem: document.getElementById("whiteOutGroup7"), x: -30}
			];
			function getDur(amount) {
				return Math.abs(amount) * 10;
			}
			let whiteOutDelay = 0;
			whiteOuts.forEach(whiteOut => {
				const dur = getDur(whiteOut.x);
				const cursor = whiteOut.elem.querySelector(".whiteOutCursor");
				whiteOut.elem.style.animationDelay = `${whiteOutDelay}ms`;
				cursor.style.animationDelay = `${whiteOutDelay}ms`;
				whiteOut.elem.style.animationDuration = `${dur}ms`;
				cursor.style.animationDuration = `${dur}ms`;

				whiteOutDelay = whiteOutDelay + dur;
			})

			// scene 6
			const lastTextGroup = document.getElementById("lastTextGroup");

			// scene 7
			const cloudGroup = document.getElementById("cloudGroup");

			// scene 8
			// cloudGroup
			// blinkingCursor

			function play() {
				scene8timer = window.setTimeout(() => {
					cloudGroup.classList.remove("visible");
					blinkingCursor.classList.add("blink");
				}, scene8Delay);

				scene7timer = window.setTimeout(() => {
					cloudGroup.classList.add("visible");
				}, scene7Delay);

				scene6timer = window.setTimeout(() => {
					lastTextGroup.classList.add("hide");
				}, scene6Delay);

				scene5timer = window.setTimeout(() => {
					whiteOuts.forEach(whiteOut => whiteOut.elem.classList.add("whiteOutAnimate"));
				}, scene5Delay);

				scene4timer = window.setTimeout(() => {
					blinkingCursor.classList.remove("blink");
					writeLines.forEach(writeLine => writeLine.classList.add("animate"));
				}, scene4Delay);

				scene3timer = window.setTimeout(() => {
					blinkingCursor.classList.add("blink");
				}, scene3Delay);

				scene2timer = window.setTimeout(() => {
					bigDocSlideLines.forEach(slideLine => slideLine.style.transform = `rotate(${getRandomDeg()}deg)`);
					fallWrap.classList.add("scatter");
					leftSmallDoc.classList.add("hide");
					rightSmallDoc.classList.add("hide");
				}, scene2Delay);

				scene1timer = window.setTimeout(() => {
					slideLines.forEach(slideLine => slideLine.classList.add("animate"));
				}, scene1Delay);
			}
			play();

			function jumpToEnd() {
				// end state
				leftSmallDoc.classList.add("removed");
				rightSmallDoc.classList.add("removed");
				blinkingCursor.classList.add("blink");

				// scene 1 reset
				slideLines.forEach(slideLine => slideLine.classList.add("removed"));

				// scene 2 reset
				bigDocSlideLines.forEach(slideLine => slideLine.classList.add("removed"));
				fallWrap.classList.add("removed");

				// scene 4 reset
				writeLines.forEach(writeLine => writeLine.classList.add("removed"));

				// scene 5 reset
				whiteOuts.forEach(whiteOut => whiteOut.elem.classList.add("removed"));

				// scene 6 reset
				lastTextGroup.classList.add("removed");

				// scene 7 reset
				cloudGroup.classList.add("removed");
			}

			document.addEventListener("visibilitychange", () => {
				if (document.visibilityState !== "visible") {
					const timers = [scene1timer, scene2timer, scene3timer, scene4timer, scene5timer, scene6timer, scene7timer, scene8timer];
					timers.forEach(timer => window.clearTimeout(timer));
					jumpToEnd();
				}
			});

    };
  ]]>
</script>
</svg>
