<?xml version="1.0" encoding="utf-8"?>
<!-- Generator: Adobe Illustrator 27.2.0, SVG Export Plug-In . SVG Version: 6.00 Build 0)  -->
<svg version="1.1" id="Layer_1" xmlns="http://www.w3.org/2000/svg" xmlns:xlink="http://www.w3.org/1999/xlink" x="0px" y="0px"
	 viewBox="0 0 29 37" style="enable-background:new 0 0 29 37;" xml:space="preserve">
<style type="text/css">
	.st0{opacity:0.8;enable-background:new    ;}
</style>
<g>
	<path d="M20,3H4H3v1v29v1h1h21h1v-1V10V9L20,3z M25,9h-5V4L25,9z M25,33H4V4h15v5v1h1h5V33z"/>
	<polygon points="13,21 11,19 9,21 13,25 20,18 17.6,15.8 	"/>
</g>
<rect x="3" y="35" class="st0" width="1" height="1"/>
<rect x="5" y="35" class="st0" width="1" height="1"/>
<rect x="7" y="35" class="st0" width="1" height="1"/>
<rect x="9" y="35" class="st0" width="1" height="1"/>
<rect x="11" y="35" class="st0" width="1" height="1"/>
<rect x="13" y="35" class="st0" width="1" height="1"/>
<rect x="15" y="35" class="st0" width="1" height="1"/>
<rect x="17" y="35" class="st0" width="1" height="1"/>
<rect x="19" y="35" class="st0" width="1" height="1"/>
<rect x="21" y="35" class="st0" width="1" height="1"/>
<rect x="23" y="35" class="st0" width="1" height="1"/>
<rect x="25" y="35" class="st0" width="1" height="1"/>
</svg>
