<?xml version="1.0" encoding="utf-8"?>
<!-- Generator: Adobe Illustrator 27.2.0, SVG Export Plug-In . SVG Version: 6.00 Build 0)  -->
<svg version="1.1" id="Layer_1" xmlns="http://www.w3.org/2000/svg" xmlns:xlink="http://www.w3.org/1999/xlink" x="0px" y="0px"
	 viewBox="0 0 23 17" style="enable-background:new 0 0 23 17;" xml:space="preserve">
<g>
	<path d="M22.1,8.3c-1-1.7-2.3-3.2-4-4.2l-0.7,0.7c1.5,0.9,2.7,2.2,3.7,3.7c-2,3.3-5.6,5.4-9.5,5.4c-1,0-2-0.1-2.9-0.4l-0.8,0.8
		c1.2,0.4,2.4,0.6,3.7,0.6c4.3,0,8.4-2.3,10.5-6.1l0.1-0.1V8.4L22.1,8.3z"/>
	<path d="M9.8,11l1.8-1.8l0.7-0.7l1.9-1.9c0.2-0.2,0.5-0.5,0.7-0.7h0l1.6-1.6l0.8-0.8l1.8-1.8L18.4,1c-0.7,0.7-1.4,1.4-2.1,2.1
		c-1.4-0.6-3-1-4.7-1c-4.3,0-8.4,2.4-10.5,6.2L1,8.4v0.2l0.1,0.1c1.1,2.1,2.9,3.7,4.8,4.8c-0.6,0.6-1.2,1.2-1.8,1.8L4.8,16l2.1-2.1
		h0c0.3-0.3,0.5-0.5,0.8-0.8l1.4-1.4L9.8,11z M11.6,7.8c-0.2,0.2-0.5,0.5-0.7,0.7c-0.6,0.6-1.2,1.2-1.7,1.7C8.8,9.7,8.6,9.1,8.6,8.5
		c0-1.7,1.4-3.1,3.1-3.1c0.6,0,1.2,0.2,1.7,0.6C12.8,6.6,12.2,7.2,11.6,7.8z M6.7,12.7c-1.9-0.9-3.5-2.3-4.6-4.2
		c2-3.4,5.6-5.4,9.5-5.4c1.3,0,2.7,0.3,3.9,0.8c-0.5,0.5-0.9,0.9-1.4,1.4c-0.7-0.5-1.5-0.8-2.5-0.8c-2.3,0-4.1,1.8-4.1,4.1
		c0,0.9,0.3,1.8,0.8,2.5C7.9,11.5,7.3,12.1,6.7,12.7z"/>
	<path d="M11.7,11.6c-0.3,0-0.6-0.1-0.9-0.2L10,12.2c0.5,0.2,1.1,0.4,1.7,0.4c2.3,0,4.1-1.8,4.1-4.1c0-0.6-0.1-1.2-0.4-1.7l-0.8,0.8
		c0.1,0.3,0.2,0.6,0.2,0.9C14.8,10.2,13.4,11.6,11.7,11.6z"/>
</g>
</svg>
