<?xml version="1.0" encoding="utf-8"?>
<!-- Generator: Adobe Illustrator 27.2.0, SVG Export Plug-In . SVG Version: 6.00 Build 0)  -->
<svg version="1.1" xmlns="http://www.w3.org/2000/svg" xmlns:xlink="http://www.w3.org/1999/xlink" x="0px" y="0px"
	 viewBox="0 0 24 33" style="enable-background:new 0 0 24 33;" xml:space="preserve">
<style type="text/css">
	.st0{display:none;}
	.st1{display:inline;}
	.st2{fill:#FFFFFF;}
</style>
<g id="Layer_1" class="st0">
	<g class="st1">
		<path d="M39.2,14.6l0.2,24.1l-24.1,0.2L15,6l15.4-0.1L39.2,14.6z M29.4,15.8L29.3,7L16.1,7.1l0.2,30.7l21.9-0.1l-0.1-21.9
			L29.4,15.8z M19.4,11.5v-1.1H26v1.1H19.4z M19.5,15.8v-1.1h6.6v1.1H19.5z M19.5,20.2v-1.1L34.9,19v1.1L19.5,20.2z M19.5,24.6v-1.1
			h15.4v1.1H19.5z M19.6,29v-1.1L35,27.8v1.1L19.6,29z M19.6,33.4v-1.1L35,32.2v1.1L19.6,33.4z M30.4,7.5v7.2h7.2L30.4,7.5z"/>
	</g>
</g>
<g id="Layer_2">
	<g>
		<path class="st2" d="M14.1,0H0v33h24V10.1L14.1,0z M22.5,10H15V2.4L22.5,10z M1,32V1h12.6L14,1.4V10v1h1h8v21H1z"/>
		<rect x="4" y="10" class="st2" width="7" height="1"/>
		<rect x="4" y="14" class="st2" width="16" height="1"/>
		<rect x="4" y="18" class="st2" width="16" height="1"/>
		<rect x="4" y="22" class="st2" width="16" height="1"/>
		<rect x="4" y="26" class="st2" width="16" height="1"/>
		<rect x="4" y="6" class="st2" width="7" height="1"/>
	</g>
</g>
</svg>
