<?xml version="1.0" encoding="utf-8"?>
<!-- Generator: Adobe Illustrator 27.2.0, SVG Export Plug-In . SVG Version: 6.00 Build 0)  -->
<svg version="1.1" id="Layer_1" xmlns="http://www.w3.org/2000/svg" xmlns:xlink="http://www.w3.org/1999/xlink" x="0px" y="0px"
	 viewBox="0 0 23 17" style="enable-background:new 0 0 23 17;" xml:space="preserve">
<g>
	<g>
		<path d="M11.6,14.9c-4.4,0-8.4-2.4-10.5-6.2L1,8.6V8.4l0.1-0.1c2.1-3.8,6.2-6.2,10.5-6.2c4.4,0,8.4,2.4,10.5,6.2l0.1,0.1v0.3
			l-0.1,0.1C20,12.6,15.9,14.9,11.6,14.9z M2.1,8.5c2,3.4,5.6,5.4,9.5,5.4s7.5-2.1,9.5-5.4c-2-3.4-5.6-5.4-9.5-5.4S4.1,5.1,2.1,8.5z
			"/>
	</g>
	<g>
		<path d="M11.7,12.6c-2.3,0-4.1-1.8-4.1-4.1s1.8-4.1,4.1-4.1s4.1,1.8,4.1,4.1C15.8,10.8,14,12.6,11.7,12.6z M11.7,5.4
			c-1.7,0-3.1,1.4-3.1,3.1s1.4,3.1,3.1,3.1s3.1-1.4,3.1-3.1S13.4,5.4,11.7,5.4z"/>
	</g>
</g>
</svg>
