<?xml version="1.0" encoding="utf-8"?>
<!-- Generator: Adobe Illustrator 27.2.0, SVG Export Plug-In . SVG Version: 6.00 Build 0)  -->
<svg version="1.1" xmlns="http://www.w3.org/2000/svg" xmlns:xlink="http://www.w3.org/1999/xlink" x="0px" y="0px"
	 viewBox="0 0 42 42" style="enable-background:new 0 0 42 42;" xml:space="preserve">
<style type="text/css">
	.st0{display:none;}
	.st1{display:inline;}
	.st2{fill:#FFFFFF;}
</style>
<g id="Layer_2">
</g>
<g id="Layer_1">
	<g id="Layer_1_00000079458615594278306690000010306096584474967692_" class="st0">
		<g class="st1">
			<path d="M60.2,2.6l0.2,24.1l-24.1,0.2L36-6l15.4-0.1L60.2,2.6z M50.4,3.8L50.3-5L37.1-4.9l0.2,30.7l21.9-0.1L59.1,3.8L50.4,3.8z
				 M40.4-0.5v-1.1H47v1.1H40.4z M40.5,3.8V2.7h6.6v1.1H40.5z M40.5,8.2V7.1L55.9,7v1.1L40.5,8.2z M40.5,12.6v-1.1h15.4v1.1H40.5z
				 M40.6,17v-1.1L56,15.8v1.1L40.6,17z M40.6,21.4v-1.1L56,20.2v1.1L40.6,21.4z M51.4-4.5v7.2h7.2L51.4-4.5z"/>
		</g>
	</g>
	<g>
		<circle class="st2" cx="21" cy="21" r="21"/>
		<g>
			<polygon class="st2" points="9.4,4.8 23,4.9 32.5,14.8 32.4,36.7 9.8,36.8 			"/>
			<g id="Layer_2_00000014614021209703588020000017314625566520930222_">
				<g>
					<path d="M23.1,4.5H9v33h24V14.6L23.1,4.5z M31.5,14.5H24V6.9L31.5,14.5z M10,36.5v-31h12.6L23,5.9v8.6v1h1h8v21H10z"/>
					<rect x="13" y="14.5" width="7" height="1"/>
					<rect x="13" y="18.5" width="16" height="1"/>
					<rect x="13" y="22.5" width="16" height="1"/>
					<rect x="13" y="26.5" width="16" height="1"/>
					<rect x="13" y="30.5" width="16" height="1"/>
					<rect x="13" y="10.5" width="7" height="1"/>
				</g>
			</g>
		</g>
	</g>
</g>
</svg>
