<?xml version="1.0" encoding="utf-8"?>
<!-- Generator: Adobe Illustrator 27.2.0, SVG Export Plug-In . SVG Version: 6.00 Build 0)  -->
<svg version="1.1" id="Layer_1" xmlns="http://www.w3.org/2000/svg" xmlns:xlink="http://www.w3.org/1999/xlink" x="0px" y="0px"
	 viewBox="0 0 80 80" style="enable-background:new 0 0 80 80;" xml:space="preserve">
<style type="text/css">
	.st0{fill:#FFFFFF;}
</style>
<g id="logoBtn">
	<polygon points="0,80 0,0 80,0 	"/>
	<g>
		<g>
			<path class="st0" d="M18.2,17.7c-0.3,0.5-1,1.5-2.5,1.5c-0.3,0-1,0-1.7-0.6c-0.4-0.4-0.9-0.9-1.1-1.9l-4.5,0.4
				c0.3,1.2,0.9,2.8,2.3,4c1.4,1.2,2.9,1.6,4.7,1.6c3.1,0,4.9-1.4,5.7-2.4c0.3-0.4,0.6-0.8,1.1-1.7l-3.8-1.8
				C18.4,17.4,18.3,17.5,18.2,17.7z"/>
		</g>
		<path class="st0" d="M12,14c0-0.4,0.2-2.4,1.7-3.2c0.3-0.2,0.8-0.4,1.6-0.3c1.8,0.2,2.3,1.7,2.5,2.2c0,0.1,0.1,0.3,0.2,0.4
			l3.9-1.4c-0.2-0.6-0.4-0.9-0.8-1.4c-0.7-1-2.4-2.8-5.5-3.2c-1.2-0.1-3.9-0.2-6.1,2.3c-1.5,1.7-1.9,3.6-1.9,4.5c0,0.4-0.1,1,0,1.8
			l4.5,0.1C12,15.2,11.9,14.7,12,14z"/>
		<polygon class="st0" points="27.5,8.2 23.1,7.7 22.2,15.2 26.6,15.3 		"/>
		<g>
			<path class="st0" d="M30.6,14.8l4,0.2l-4.2,0.5l0.1,2c0,0.4,0.1,0.7,0,1.1c-0.4,1.1-1.4,1.2-1.7,1.2c-0.3,0-1.3,0-1.7-1.1
				c-0.2-0.4-0.1-0.9-0.1-1.1L26.9,16l-4.4,0.6l0,0.8c0.1,1.5,0.1,2,0.4,2.7c0.7,1.7,2.1,2.3,2.7,2.6c1.4,0.6,2.8,0.5,3.3,0.5
				c2.5-0.1,5-1.2,5.9-3.8c0.3-0.8,0.4-1.6,0.4-2.5L35.2,15l0.2,0l0.8-6.3L31.5,8L30.6,14.8z"/>
		</g>
		<g>
			<polygon class="st0" points="40.3,15.4 42.1,23.2 46.4,22.2 44.5,14 			"/>
		</g>
		<polygon class="st0" points="41.5,14.6 45.8,13.6 45.6,11.5 49,11 48.6,7.6 37.2,9.1 37.7,12.6 41.2,12.1 		"/>
		<g>
			<path class="st0" d="M17.9,35.4c0,0.4-0.2,0.7-0.4,1.1c-0.5,1-1.7,0.9-2,0.9c-0.3,0-1.4-0.2-1.6-1.3c-0.1-0.5,0-0.9,0-1.1
				l0.4-3.8l0.5,0.1l1.5-4.6l-4.2-1.4l-1.6,4.9l2.8,0.7l-3.4-0.1L9.6,34c-0.2,1.5-0.2,2,0,2.7c0.5,1.8,1.8,2.6,2.3,2.9
				c1.3,0.8,2.7,1,3.2,1c2.5,0.3,5.2-0.4,6.4-2.8c0.4-0.8,0.7-1.5,0.8-2.4l0.5-4.4L18.3,31L17.9,35.4z"/>
		</g>
		<g>
			<polygon class="st0" points="23,26 18,26 18,30.3 23,29.9 			"/>
		</g>
		<g>
			<path class="st0" d="M35.3,28.2L30.4,29c0.3,0.1,0.5,0.3,0.7,0.6c0.2,0.4,0.3,0.8,0.3,1c0.1,1.1-0.5,1.6-0.9,1.8
				c-0.3,0.1-0.7,0.2-0.8,0.2l-2.4,0.2l-0.2-3.1l-4.4,0.7l0.8,10.1l4.4-0.3l-0.3-4.4l3.2-0.2c0.9-0.1,1.7-0.3,2.5-0.6
				c1.5-0.7,2.1-2.2,2.2-2.7c0.3-0.9,0.2-1.8,0.2-2C35.7,29.7,35.6,29,35.3,28.2z"/>
		</g>
		<g>
			<path class="st0" d="M27.8,28.4L27.7,28l2.3-0.4c0.1,0,0.5-0.1,0.9,0l4.8-1.3c-0.3-0.5-0.7-1.1-1.4-1.4c-1.2-0.8-2.5-0.7-3.8-0.5
				l-7.7,1.3l0.6,3.8L27.8,28.4z"/>
		</g>
	</g>
</g>
</svg>
