<?xml version="1.0" encoding="utf-8"?>
<!-- Generator: Adobe Illustrator 27.2.0, SVG Export Plug-In . SVG Version: 6.00 Build 0)  -->
<svg version="1.1" id="Layer_1" xmlns="http://www.w3.org/2000/svg" xmlns:xlink="http://www.w3.org/1999/xlink" x="0px" y="0px"
	 viewBox="0 0 53 53" style="enable-background:new 0 0 53 53;" xml:space="preserve">
<style type="text/css">
	.st0{fill:#FFFFFF;}
</style>
<g>
	<circle class="st0" cx="26.5" cy="26.5" r="26.5"/>
	<g>
		<path d="M39.6,18.1l0.2,24.1l-24.1,0.2L15.4,9.5l15.4-0.1L39.6,18.1z M29.8,19.3l-0.1-8.8l-13.2,0.1l0.2,30.7l21.9-0.1l-0.1-21.9
			L29.8,19.3z M19.8,15l0-1.1l6.6,0l0,1.1L19.8,15z M19.9,19.3l0-1.1l6.6,0l0,1.1L19.9,19.3z M19.9,23.7l0-1.1l15.4-0.1l0,1.1
			L19.9,23.7z M19.9,28.1l0-1.1L35.3,27l0,1.1L19.9,28.1z M20,32.5l0-1.1l15.4-0.1l0,1.1L20,32.5z M20,36.9l0-1.1l15.4-0.1l0,1.1
			L20,36.9z M30.8,11l0,7.2l7.2,0L30.8,11z"/>
	</g>
</g>
</svg>
