<?xml version="1.0" encoding="utf-8"?>
<!-- Generator: Adobe Illustrator 27.2.0, SVG Export Plug-In . SVG Version: 6.00 Build 0)  -->
<svg version="1.1" id="Layer_1" xmlns="http://www.w3.org/2000/svg" xmlns:xlink="http://www.w3.org/1999/xlink" x="0px" y="0px"
	 viewBox="0 0 71 71" style="enable-background:new 0 0 71 71;" xml:space="preserve">
<g>
	<path d="M22.8,8.1l-0.6,0.3l-3.3-2.1l1.6,3l-0.6,0.3l-2.2-4.2l0.6-0.3l3.3,2.1l-1.6-3l0.6-0.3L22.8,8.1z"/>
	<path d="M24.7,6.6c0.2-0.1,0.3-0.2,0.4-0.3c0.1-0.1,0.1-0.3,0.1-0.4l0.7-0.3c0.1,0.2,0.1,0.4,0,0.6c0,0.2-0.1,0.3-0.2,0.5
		c-0.1,0.1-0.2,0.2-0.3,0.3c-0.1,0.1-0.3,0.2-0.4,0.2c-0.1,0.1-0.3,0.1-0.5,0.1c-0.2,0-0.3,0-0.5,0c-0.2-0.1-0.3-0.1-0.5-0.3
		S23.1,6.7,23,6.4l-0.3-0.7c-0.1-0.3-0.1-0.5-0.1-0.7c0-0.2,0.1-0.4,0.2-0.5c0.1-0.2,0.2-0.3,0.4-0.4c0.1-0.1,0.3-0.2,0.4-0.2
		c0.1-0.1,0.3-0.1,0.5-0.1c0.2,0,0.3,0,0.5,0c0.2,0.1,0.3,0.1,0.5,0.3c0.2,0.1,0.3,0.4,0.4,0.6l0.2,0.6l-2.1,0.8l0,0.1
		c0.1,0.3,0.2,0.4,0.4,0.5C24.3,6.7,24.5,6.7,24.7,6.6z M23.9,4.5c-0.2,0.1-0.4,0.2-0.4,0.4c-0.1,0.2-0.1,0.4,0,0.6l0,0L24.8,5l0,0
		c-0.1-0.2-0.2-0.4-0.4-0.5C24.3,4.4,24.1,4.4,23.9,4.5z"/>
	<path d="M28.3,4l0,2.2l-0.6,0.1L26.3,3L27,2.9l0.9,2.3l0-1.9l0.6-0.1l0.8,1.7l-0.2-2.4l0.7-0.2l0.2,3.5L29.2,6L28.3,4z"/>
	<path d="M35,5.3l0.2-4.8l1.7,0.1c0.3,0,0.5,0.1,0.7,0.1c0.2,0.1,0.4,0.2,0.5,0.4c0.1,0.2,0.3,0.3,0.3,0.5c0.1,0.2,0.1,0.4,0.1,0.7
		l-0.1,1.4c0,0.3-0.1,0.5-0.1,0.7c-0.1,0.2-0.2,0.4-0.4,0.5c-0.2,0.1-0.3,0.2-0.6,0.3c-0.2,0.1-0.4,0.1-0.7,0.1L35,5.3z M36.7,4.6
		c0.1,0,0.2,0,0.4,0c0.1,0,0.2-0.1,0.3-0.2c0.1-0.1,0.2-0.2,0.2-0.3c0.1-0.1,0.1-0.3,0.1-0.4l0-1.4c0-0.2,0-0.3-0.1-0.4
		c-0.1-0.1-0.1-0.2-0.2-0.3c-0.1-0.1-0.2-0.1-0.3-0.2c-0.1,0-0.2-0.1-0.4-0.1l-1,0l-0.1,3.3L36.7,4.6z"/>
	<path d="M39.5,3.4c0-0.3,0.1-0.5,0.3-0.7c0.1-0.2,0.3-0.3,0.4-0.4c0.2-0.1,0.3-0.1,0.5-0.1c0.2,0,0.3,0,0.5,0
		c0.2,0,0.3,0.1,0.5,0.1c0.2,0.1,0.3,0.2,0.4,0.3c0.1,0.1,0.2,0.3,0.3,0.5c0.1,0.2,0.1,0.4,0,0.7l-0.1,0.8c0,0.3-0.1,0.5-0.3,0.7
		c-0.1,0.2-0.3,0.3-0.4,0.4c-0.2,0.1-0.3,0.1-0.5,0.1c-0.2,0-0.3,0-0.5,0c-0.2,0-0.3-0.1-0.5-0.1c-0.2-0.1-0.3-0.2-0.4-0.3
		c-0.1-0.1-0.2-0.3-0.3-0.5c-0.1-0.2-0.1-0.4,0-0.7L39.5,3.4z M41.7,3.7c0-0.3,0-0.5-0.1-0.6c-0.1-0.1-0.3-0.2-0.5-0.3
		c-0.2,0-0.4,0-0.6,0.1c-0.2,0.1-0.3,0.3-0.3,0.5l-0.1,0.7c0,0.3,0,0.5,0.1,0.6c0.1,0.1,0.3,0.2,0.5,0.3c0.2,0,0.4,0,0.6-0.1
		c0.2-0.1,0.3-0.3,0.3-0.5L41.7,3.7z"/>
	<path d="M46.3,5.9c-0.1,0.2-0.2,0.4-0.4,0.5c-0.1,0.1-0.3,0.2-0.5,0.3c-0.2,0.1-0.3,0.1-0.5,0.1c-0.2,0-0.3,0-0.5-0.1
		c-0.1,0-0.3-0.1-0.4-0.2c-0.1-0.1-0.3-0.2-0.4-0.4c-0.1-0.1-0.2-0.3-0.2-0.5c0-0.2,0-0.4,0.1-0.7l0.2-0.7c0.1-0.3,0.2-0.5,0.3-0.6
		c0.1-0.2,0.3-0.3,0.5-0.3c0.2-0.1,0.3-0.1,0.5-0.1c0.2,0,0.3,0,0.5,0.1c0.1,0,0.3,0.1,0.4,0.2c0.1,0.1,0.3,0.2,0.4,0.3
		c0.1,0.1,0.2,0.3,0.2,0.5c0,0.2,0,0.4,0,0.6l-0.7-0.2c0-0.2,0-0.4-0.1-0.5c-0.1-0.1-0.2-0.2-0.4-0.3c-0.2-0.1-0.4-0.1-0.6,0
		c-0.2,0.1-0.3,0.2-0.4,0.5l-0.2,0.7c-0.1,0.3-0.1,0.5,0,0.6c0.1,0.2,0.2,0.3,0.5,0.3c0.2,0.1,0.3,0.1,0.5,0
		c0.2-0.1,0.3-0.2,0.4-0.3L46.3,5.9z"/>
	<path d="M53.2,10.9l-0.6-0.4l0.2-3.9l-1.8,2.9L50.3,9l2.5-4l0.6,0.4l-0.2,3.9l1.8-2.9l0.6,0.4L53.2,10.9z"/>
	<path d="M55.4,11.8c0.1,0.1,0.3,0.2,0.4,0.2c0.1,0,0.3,0,0.4-0.1l0.6,0.5c-0.2,0.2-0.3,0.3-0.5,0.3c-0.2,0.1-0.3,0.1-0.5,0.1
		c-0.2,0-0.3-0.1-0.5-0.1c-0.1-0.1-0.3-0.2-0.4-0.2c-0.1-0.1-0.2-0.2-0.3-0.4c-0.1-0.1-0.2-0.3-0.2-0.5c0-0.2,0-0.4,0-0.6
		c0-0.2,0.2-0.4,0.3-0.6l0.5-0.6c0.2-0.2,0.4-0.4,0.6-0.5c0.2-0.1,0.4-0.1,0.6-0.1c0.2,0,0.4,0.1,0.5,0.1c0.2,0.1,0.3,0.2,0.4,0.3
		c0.1,0.1,0.2,0.2,0.3,0.4c0.1,0.1,0.2,0.3,0.2,0.5c0,0.2,0,0.4,0,0.6c0,0.2-0.2,0.4-0.3,0.6L57.1,12l-1.7-1.4l-0.1,0.1
		c-0.2,0.2-0.2,0.4-0.2,0.6C55.1,11.5,55.2,11.7,55.4,11.8z M56.8,10c-0.2-0.1-0.3-0.2-0.5-0.2c-0.2,0-0.4,0.1-0.5,0.3l0,0l1.2,1
		l0,0c0.2-0.2,0.2-0.4,0.2-0.6C57.1,10.3,57,10.2,56.8,10z"/>
	<path d="M59.4,13.6l-1.9,1.1l-0.4-0.5l2.2-2.8l0.5,0.5l-1.5,1.9l1.6-1l0.4,0.4l-1.1,1.6l2-1.4l0.5,0.5l-3,2l-0.4-0.5L59.4,13.6z"/>
	<path d="M61.7,20l4.2-2.2l0.8,1.5c0.1,0.2,0.2,0.4,0.2,0.7c0,0.2,0,0.4,0,0.6c-0.1,0.2-0.2,0.4-0.3,0.6c-0.1,0.2-0.3,0.3-0.6,0.4
		l-1.2,0.7c-0.2,0.1-0.5,0.2-0.7,0.2c-0.2,0-0.4,0-0.6-0.1c-0.2-0.1-0.4-0.2-0.6-0.3c-0.2-0.1-0.3-0.3-0.4-0.6L61.7,20z M63.2,21.2
		c0.1,0.1,0.1,0.2,0.2,0.3c0.1,0.1,0.2,0.2,0.3,0.2c0.1,0,0.2,0.1,0.4,0.1c0.1,0,0.3-0.1,0.4-0.1l1.2-0.6c0.1-0.1,0.3-0.2,0.3-0.3
		c0.1-0.1,0.1-0.2,0.2-0.3c0-0.1,0-0.2,0-0.4c0-0.1-0.1-0.2-0.1-0.3l-0.5-0.9l-2.9,1.6L63.2,21.2z"/>
	<path d="M65.7,23c0.3-0.1,0.5-0.1,0.7-0.1c0.2,0,0.4,0.1,0.5,0.2c0.2,0.1,0.3,0.2,0.4,0.4c0.1,0.1,0.2,0.3,0.2,0.4
		c0.1,0.1,0.1,0.3,0.1,0.5c0,0.2,0,0.3,0,0.5c-0.1,0.2-0.1,0.3-0.3,0.5c-0.1,0.2-0.4,0.3-0.6,0.4L66,26c-0.3,0.1-0.5,0.1-0.7,0.1
		c-0.2,0-0.4-0.1-0.5-0.2c-0.2-0.1-0.3-0.2-0.4-0.4c-0.1-0.1-0.2-0.3-0.2-0.4C64,25,64,24.9,64,24.7c0-0.2,0-0.3,0-0.5
		c0.1-0.2,0.1-0.3,0.3-0.5c0.1-0.2,0.4-0.3,0.6-0.4L65.7,23z M66.4,25.1c0.3-0.1,0.4-0.2,0.5-0.4c0.1-0.2,0.1-0.4,0-0.6
		c-0.1-0.2-0.2-0.4-0.4-0.4c-0.2-0.1-0.4-0.1-0.6,0L65.2,24c-0.3,0.1-0.4,0.2-0.5,0.4c-0.1,0.2-0.1,0.4,0,0.6
		c0.1,0.2,0.2,0.4,0.4,0.4c0.2,0.1,0.4,0.1,0.6,0L66.4,25.1z"/>
	<path d="M66.8,30.1c-0.2,0-0.5,0-0.6,0C66,30,65.8,30,65.7,29.8s-0.2-0.2-0.3-0.4c-0.1-0.1-0.1-0.3-0.2-0.4c0-0.1,0-0.3,0-0.5
		s0-0.3,0.1-0.5c0.1-0.2,0.2-0.3,0.4-0.5c0.2-0.1,0.4-0.2,0.7-0.3l0.7-0.2c0.3-0.1,0.5-0.1,0.7,0c0.2,0.1,0.4,0.1,0.5,0.3
		c0.1,0.1,0.2,0.3,0.3,0.4c0.1,0.2,0.1,0.3,0.2,0.5c0,0.1,0,0.3,0,0.5c0,0.2,0,0.3-0.1,0.5c-0.1,0.2-0.2,0.3-0.3,0.4
		c-0.1,0.1-0.3,0.2-0.6,0.3l-0.2-0.7c0.2-0.1,0.3-0.2,0.4-0.3c0.1-0.1,0.1-0.3,0-0.5c0-0.2-0.2-0.4-0.3-0.5
		c-0.2-0.1-0.4-0.1-0.6-0.1l-0.7,0.2c-0.3,0.1-0.4,0.2-0.5,0.3s-0.1,0.4-0.1,0.6c0,0.2,0.1,0.3,0.2,0.4c0.1,0.1,0.3,0.2,0.5,0.1
		L66.8,30.1z"/>
	<path d="M66,38.6l0-0.7l3.5-1.8l-3.4-0.1l0-0.7l4.8,0.2l0,0.7l-3.5,1.8l3.4,0.1l0,0.7L66,38.6z"/>
	<path d="M66.3,41c0,0.2,0,0.3,0,0.5c0.1,0.1,0.2,0.2,0.3,0.3l-0.1,0.7c-0.2-0.1-0.4-0.2-0.5-0.3c-0.1-0.1-0.2-0.3-0.3-0.4
		c-0.1-0.2-0.1-0.3-0.1-0.5c0-0.2,0-0.3,0-0.4c0-0.2,0.1-0.3,0.1-0.5c0.1-0.2,0.2-0.3,0.3-0.4c0.1-0.1,0.3-0.2,0.5-0.3
		c0.2-0.1,0.4-0.1,0.7,0l0.8,0.1c0.3,0,0.5,0.1,0.7,0.3c0.2,0.1,0.3,0.3,0.4,0.4c0.1,0.2,0.1,0.3,0.1,0.5c0,0.2,0,0.3,0,0.5
		c0,0.2-0.1,0.3-0.1,0.5c-0.1,0.2-0.2,0.3-0.3,0.4c-0.1,0.1-0.3,0.2-0.5,0.3c-0.2,0.1-0.4,0.1-0.7,0l-0.6-0.1l0.4-2.2l-0.1,0
		c-0.3,0-0.5,0-0.6,0.1C66.4,40.6,66.3,40.8,66.3,41z M68.5,41.4c0-0.2,0-0.4-0.1-0.6c-0.1-0.2-0.3-0.3-0.5-0.3l0,0L67.6,42l0,0
		c0.3,0,0.5,0,0.6-0.1C68.4,41.7,68.5,41.6,68.5,41.4z"/>
	<path d="M66.7,45.4l-1.9-1.1l0.2-0.6l3.5,0.5l-0.2,0.7L66,44.4l1.7,0.9l-0.2,0.6l-1.9-0.2l2.2,1l-0.2,0.7l-3.2-1.6l0.2-0.6
		L66.7,45.4z"/>
	<path d="M62.3,50.6l4,2.5l-0.9,1.4c-0.1,0.2-0.3,0.4-0.5,0.5c-0.2,0.1-0.4,0.2-0.6,0.3c-0.2,0.1-0.4,0.1-0.6,0s-0.4-0.1-0.7-0.3
		l-1.2-0.7c-0.2-0.1-0.4-0.3-0.5-0.5c-0.1-0.2-0.2-0.4-0.3-0.6c0-0.2,0-0.4,0-0.6c0-0.2,0.1-0.4,0.3-0.7L62.3,50.6z M62,52.4
		c-0.1,0.1-0.1,0.2-0.1,0.3c0,0.1,0,0.2,0,0.4c0,0.1,0.1,0.2,0.1,0.4c0.1,0.1,0.2,0.2,0.3,0.3l1.2,0.7c0.1,0.1,0.3,0.1,0.4,0.2
		c0.1,0,0.3,0,0.4,0c0.1,0,0.2-0.1,0.3-0.2c0.1-0.1,0.2-0.2,0.2-0.3l0.5-0.8l-2.8-1.8L62,52.4z"/>
	<path d="M61.7,55.5c0.2,0.2,0.4,0.4,0.5,0.6c0.1,0.2,0.1,0.4,0.1,0.6c0,0.2-0.1,0.3-0.1,0.5c-0.1,0.2-0.2,0.3-0.3,0.4
		c-0.1,0.1-0.2,0.2-0.4,0.3C61.4,58,61.2,58,61,58.1c-0.2,0-0.4,0-0.6,0c-0.2,0-0.4-0.2-0.6-0.3l-0.6-0.5c-0.2-0.2-0.4-0.4-0.5-0.6
		c-0.1-0.2-0.1-0.4-0.1-0.6c0-0.2,0.1-0.4,0.1-0.5c0.1-0.2,0.2-0.3,0.3-0.4c0.1-0.1,0.2-0.2,0.4-0.3c0.1-0.1,0.3-0.2,0.5-0.2
		c0.2,0,0.4,0,0.6,0c0.2,0,0.4,0.2,0.6,0.3L61.7,55.5z M60.2,57.2c0.2,0.2,0.4,0.2,0.6,0.2c0.2,0,0.3-0.1,0.5-0.3
		c0.1-0.2,0.2-0.3,0.2-0.5c0-0.2-0.1-0.4-0.3-0.5l-0.6-0.5c-0.2-0.2-0.4-0.2-0.6-0.2c-0.2,0-0.3,0.1-0.5,0.3
		c-0.1,0.2-0.2,0.4-0.2,0.5c0,0.2,0.1,0.4,0.3,0.5L60.2,57.2z"/>
	<path d="M56.1,60c-0.2-0.2-0.2-0.4-0.3-0.6c0-0.2,0-0.4,0-0.5c0-0.2,0.1-0.3,0.2-0.5c0.1-0.1,0.2-0.3,0.3-0.4
		c0.1-0.1,0.2-0.2,0.4-0.3c0.2-0.1,0.3-0.1,0.5-0.2c0.2,0,0.4,0,0.6,0.1s0.4,0.2,0.6,0.4l0.5,0.6c0.2,0.2,0.3,0.4,0.4,0.6
		c0.1,0.2,0.1,0.4,0,0.6c0,0.2-0.1,0.3-0.2,0.5c-0.1,0.1-0.2,0.3-0.3,0.4c-0.1,0.1-0.2,0.2-0.4,0.3c-0.1,0.1-0.3,0.1-0.5,0.2
		c-0.2,0-0.3,0-0.5,0c-0.2-0.1-0.4-0.2-0.6-0.3l0.5-0.5c0.2,0.1,0.3,0.2,0.5,0.2c0.2,0,0.3-0.1,0.4-0.2c0.2-0.2,0.3-0.3,0.3-0.5
		c0-0.2-0.1-0.4-0.3-0.6l-0.5-0.5c-0.2-0.2-0.4-0.3-0.6-0.3c-0.2,0-0.4,0.1-0.5,0.2c-0.1,0.1-0.2,0.3-0.3,0.4c0,0.2,0,0.3,0.1,0.5
		L56.1,60z"/>
	<path d="M48.3,63.6l0.6-0.3l3.3,2.1l-1.6-3l0.6-0.3l2.2,4.2L53,66.5l-3.3-2.1l1.6,3l-0.6,0.3L48.3,63.6z"/>
	<path d="M46.4,65c-0.2,0.1-0.3,0.2-0.4,0.3c-0.1,0.1-0.1,0.3-0.1,0.4l-0.7,0.3c-0.1-0.2-0.1-0.4,0-0.6c0-0.2,0.1-0.3,0.2-0.5
		c0.1-0.1,0.2-0.2,0.3-0.3c0.1-0.1,0.3-0.2,0.4-0.2c0.1-0.1,0.3-0.1,0.5-0.1c0.2,0,0.3,0,0.5,0c0.2,0.1,0.3,0.1,0.5,0.3
		c0.2,0.1,0.3,0.4,0.4,0.6l0.3,0.7c0.1,0.3,0.1,0.5,0.1,0.7c0,0.2-0.1,0.4-0.2,0.5c-0.1,0.2-0.2,0.3-0.4,0.4
		c-0.1,0.1-0.3,0.2-0.4,0.2c-0.1,0.1-0.3,0.1-0.5,0.1c-0.2,0-0.3,0-0.5,0c-0.2-0.1-0.3-0.1-0.5-0.3c-0.2-0.1-0.3-0.4-0.4-0.6
		l-0.2-0.6l2.1-0.8l0-0.1C47.3,65.2,47.2,65,47,65C46.8,64.9,46.6,64.9,46.4,65z M47.2,67.1c0.2-0.1,0.4-0.2,0.4-0.4
		c0.1-0.2,0.1-0.4,0-0.6l0,0l-1.4,0.5l0,0c0.1,0.2,0.2,0.4,0.4,0.5C46.8,67.2,47,67.2,47.2,67.1z"/>
	<path d="M42.9,67.6l0-2.2l0.6-0.1l1.3,3.3l-0.7,0.2l-0.8-2.3l0,1.9l-0.6,0.1L42,66.8l0.2,2.4l-0.7,0.2l-0.2-3.5l0.6-0.1L42.9,67.6z
		"/>
	<path d="M36.1,66.3L36,71.1L34.3,71c-0.3,0-0.5-0.1-0.7-0.1c-0.2-0.1-0.4-0.2-0.5-0.4c-0.1-0.2-0.3-0.3-0.3-0.5
		c-0.1-0.2-0.1-0.4-0.1-0.7l0.1-1.4c0-0.3,0.1-0.5,0.1-0.7c0.1-0.2,0.2-0.4,0.4-0.5c0.2-0.1,0.3-0.2,0.6-0.3
		c0.2-0.1,0.4-0.1,0.7-0.1L36.1,66.3z M34.4,67c-0.1,0-0.2,0-0.4,0c-0.1,0-0.2,0.1-0.3,0.2c-0.1,0.1-0.2,0.2-0.2,0.3
		c-0.1,0.1-0.1,0.3-0.1,0.4l-0.1,1.4c0,0.2,0,0.3,0.1,0.4c0.1,0.1,0.1,0.2,0.2,0.3c0.1,0.1,0.2,0.1,0.3,0.2c0.1,0,0.2,0.1,0.4,0.1
		l1,0l0.1-3.3L34.4,67z"/>
	<path d="M31.6,68.2c0,0.3-0.1,0.5-0.3,0.7c-0.1,0.2-0.3,0.3-0.4,0.4c-0.2,0.1-0.3,0.1-0.5,0.1c-0.2,0-0.3,0-0.5,0
		c-0.2,0-0.3-0.1-0.5-0.1c-0.2-0.1-0.3-0.2-0.4-0.3c-0.1-0.1-0.2-0.3-0.3-0.5c-0.1-0.2-0.1-0.4,0-0.7l0.1-0.8c0-0.3,0.1-0.5,0.3-0.7
		c0.1-0.2,0.3-0.3,0.4-0.4c0.2-0.1,0.3-0.1,0.5-0.1c0.2,0,0.3,0,0.5,0c0.2,0,0.3,0.1,0.5,0.1c0.2,0.1,0.3,0.2,0.4,0.3
		s0.2,0.3,0.3,0.5c0.1,0.2,0.1,0.4,0,0.7L31.6,68.2z M29.4,67.9c0,0.3,0,0.5,0.1,0.6c0.1,0.1,0.3,0.2,0.5,0.3c0.2,0,0.4,0,0.6-0.1
		c0.2-0.1,0.3-0.3,0.3-0.5l0.1-0.7c0-0.3,0-0.5-0.1-0.6c-0.1-0.1-0.3-0.2-0.5-0.3c-0.2,0-0.4,0-0.6,0.1c-0.2,0.1-0.3,0.3-0.3,0.5
		L29.4,67.9z"/>
	<path d="M24.8,65.7c0.1-0.2,0.2-0.4,0.4-0.5c0.1-0.1,0.3-0.2,0.5-0.3c0.2-0.1,0.3-0.1,0.5-0.1c0.2,0,0.3,0,0.5,0.1
		c0.1,0,0.3,0.1,0.4,0.2c0.1,0.1,0.3,0.2,0.4,0.4c0.1,0.1,0.2,0.3,0.2,0.5c0,0.2,0,0.4-0.1,0.7l-0.2,0.7c-0.1,0.3-0.2,0.5-0.3,0.6
		c-0.1,0.2-0.3,0.3-0.5,0.3c-0.2,0.1-0.3,0.1-0.5,0.1c-0.2,0-0.3,0-0.5-0.1c-0.1,0-0.3-0.1-0.4-0.2c-0.1-0.1-0.3-0.2-0.4-0.3
		c-0.1-0.1-0.2-0.3-0.2-0.5c0-0.2,0-0.4,0-0.6l0.7,0.2c0,0.2,0,0.4,0.1,0.5c0.1,0.1,0.2,0.2,0.4,0.3c0.2,0.1,0.4,0.1,0.6,0
		c0.2-0.1,0.3-0.2,0.4-0.5l0.2-0.7c0.1-0.3,0.1-0.5,0-0.6c-0.1-0.2-0.2-0.3-0.5-0.3c-0.2-0.1-0.3-0.1-0.5,0s-0.3,0.2-0.4,0.3
		L24.8,65.7z"/>
	<path d="M17.9,60.7l0.6,0.4l-0.2,3.9l1.8-2.9l0.6,0.4l-2.5,4l-0.6-0.4l0.2-3.9L16,65.2l-0.6-0.4L17.9,60.7z"/>
	<path d="M15.7,59.8c-0.1-0.1-0.3-0.2-0.4-0.2c-0.1,0-0.3,0-0.4,0.1l-0.6-0.5c0.2-0.2,0.3-0.3,0.5-0.3c0.2-0.1,0.3-0.1,0.5-0.1
		c0.2,0,0.3,0.1,0.5,0.1c0.1,0.1,0.3,0.2,0.4,0.2c0.1,0.1,0.2,0.2,0.3,0.4c0.1,0.1,0.2,0.3,0.2,0.5c0,0.2,0,0.4,0,0.6
		c0,0.2-0.2,0.4-0.3,0.6l-0.5,0.6c-0.2,0.2-0.4,0.4-0.6,0.5c-0.2,0.1-0.4,0.1-0.6,0.1c-0.2,0-0.4-0.1-0.5-0.1
		c-0.2-0.1-0.3-0.2-0.4-0.3c-0.1-0.1-0.2-0.2-0.3-0.4c-0.1-0.1-0.2-0.3-0.2-0.5c0-0.2,0-0.4,0-0.6c0-0.2,0.2-0.4,0.3-0.6l0.4-0.5
		l1.7,1.4l0.1-0.1c0.2-0.2,0.2-0.4,0.2-0.6C16,60.1,15.9,59.9,15.7,59.8z M14.3,61.6c0.2,0.1,0.3,0.2,0.5,0.2c0.2,0,0.4-0.1,0.5-0.3
		l0,0l-1.2-1l0,0C14,60.7,14,60.9,14,61.1C14,61.3,14.1,61.4,14.3,61.6z"/>
	<path d="M11.7,58l1.9-1.1l0.4,0.5l-2.2,2.8l-0.5-0.5l1.5-1.9l-1.6,1l-0.4-0.4l1.1-1.6l-2,1.4l-0.5-0.5l3-2l0.4,0.5L11.7,58z"/>
	<path d="M9.4,51.6l-4.2,2.2l-0.8-1.5c-0.1-0.2-0.2-0.4-0.2-0.7c0-0.2,0-0.4,0-0.6c0.1-0.2,0.2-0.4,0.3-0.6c0.1-0.2,0.3-0.3,0.6-0.4
		l1.2-0.7c0.2-0.1,0.5-0.2,0.7-0.2c0.2,0,0.4,0,0.6,0.1c0.2,0.1,0.4,0.2,0.5,0.3c0.2,0.1,0.3,0.3,0.4,0.6L9.4,51.6z M8,50.4
		c-0.1-0.1-0.1-0.2-0.2-0.3c-0.1-0.1-0.2-0.2-0.3-0.2c-0.1,0-0.2-0.1-0.4-0.1c-0.1,0-0.3,0.1-0.4,0.1l-1.2,0.6
		c-0.1,0.1-0.3,0.2-0.3,0.3C5,51,5,51.1,4.9,51.2c0,0.1,0,0.2,0,0.4c0,0.1,0.1,0.2,0.1,0.3l0.5,0.9l2.9-1.6L8,50.4z"/>
	<path d="M5.5,48.5c-0.3,0.1-0.5,0.1-0.7,0.1c-0.2,0-0.4-0.1-0.5-0.2c-0.2-0.1-0.3-0.2-0.4-0.4c-0.1-0.1-0.2-0.3-0.2-0.4
		c-0.1-0.1-0.1-0.3-0.1-0.5c0-0.2,0-0.3,0-0.5c0.1-0.2,0.1-0.3,0.3-0.5C4,46,4.2,45.9,4.4,45.8l0.7-0.3c0.3-0.1,0.5-0.1,0.7-0.1
		c0.2,0,0.4,0.1,0.5,0.2c0.2,0.1,0.3,0.2,0.4,0.4C6.9,46.1,7,46.3,7,46.4s0.1,0.3,0.1,0.5c0,0.2,0,0.3,0,0.5
		c-0.1,0.2-0.1,0.3-0.3,0.5c-0.1,0.2-0.4,0.3-0.6,0.4L5.5,48.5z M4.7,46.5c-0.3,0.1-0.4,0.2-0.5,0.4c-0.1,0.2-0.1,0.4,0,0.6
		c0.1,0.2,0.2,0.4,0.4,0.4C4.8,48,5,48,5.2,47.9l0.7-0.3c0.3-0.1,0.4-0.2,0.5-0.4c0.1-0.2,0.1-0.4,0-0.6c-0.1-0.2-0.2-0.4-0.4-0.4
		c-0.2-0.1-0.4-0.1-0.6,0L4.7,46.5z"/>
	<path d="M4.3,41.4c0.2,0,0.5,0,0.6,0c0.2,0.1,0.3,0.1,0.5,0.3c0.1,0.1,0.2,0.2,0.3,0.4c0.1,0.1,0.1,0.3,0.2,0.4c0,0.2,0,0.3,0,0.5
		c0,0.2,0,0.3-0.1,0.5c-0.1,0.2-0.2,0.3-0.4,0.4c-0.2,0.1-0.4,0.2-0.7,0.3l-0.7,0.2c-0.3,0.1-0.5,0.1-0.7,0
		c-0.2-0.1-0.4-0.1-0.5-0.3c-0.1-0.1-0.2-0.3-0.3-0.4c-0.1-0.2-0.1-0.3-0.2-0.5c0-0.1,0-0.3,0-0.5c0-0.2,0-0.3,0.1-0.5
		c0.1-0.2,0.2-0.3,0.3-0.4c0.1-0.1,0.3-0.2,0.6-0.3l0.2,0.7c-0.2,0.1-0.3,0.2-0.4,0.3c-0.1,0.1-0.1,0.3,0,0.5c0,0.2,0.2,0.4,0.3,0.5
		c0.2,0.1,0.4,0.1,0.6,0.1l0.7-0.2c0.3-0.1,0.4-0.2,0.5-0.3c0.1-0.2,0.1-0.4,0.1-0.6c0-0.2-0.1-0.3-0.2-0.4
		c-0.1-0.1-0.3-0.2-0.5-0.1L4.3,41.4z"/>
	<path d="M5.2,33l0,0.7l-3.5,1.8l3.4,0.1l0,0.7l-4.8-0.2l0-0.7l3.5-1.8l-3.4-0.1l0-0.7L5.2,33z"/>
	<path d="M4.9,30.6c0-0.2,0-0.3,0-0.5c-0.1-0.1-0.2-0.2-0.3-0.3l0.1-0.7c0.2,0.1,0.4,0.2,0.5,0.3c0.1,0.1,0.2,0.3,0.3,0.4
		c0.1,0.2,0.1,0.3,0.1,0.5c0,0.2,0,0.3,0,0.4c0,0.2-0.1,0.3-0.1,0.5c-0.1,0.2-0.2,0.3-0.3,0.4c-0.1,0.1-0.3,0.2-0.5,0.3
		c-0.2,0.1-0.4,0.1-0.7,0l-0.8-0.1c-0.3,0-0.5-0.1-0.7-0.3c-0.2-0.1-0.3-0.3-0.4-0.4c-0.1-0.2-0.1-0.3-0.1-0.5c0-0.2,0-0.3,0-0.5
		c0-0.2,0.1-0.3,0.1-0.5c0.1-0.2,0.2-0.3,0.3-0.4c0.1-0.1,0.3-0.2,0.5-0.3c0.2-0.1,0.4-0.1,0.7,0L4.2,29l-0.4,2.2l0.1,0
		c0.3,0,0.5,0,0.6-0.1C4.8,31,4.9,30.8,4.9,30.6z M2.6,30.2c0,0.2,0,0.4,0.1,0.6C2.8,30.9,3,31,3.3,31.1l0,0l0.2-1.5l0,0
		c-0.3,0-0.5,0-0.6,0.1C2.8,29.8,2.7,30,2.6,30.2z"/>
	<path d="M4.4,26.2l1.9,1.1l-0.2,0.6l-3.5-0.5l0.2-0.7l2.4,0.4l-1.7-0.9l0.2-0.6l1.9,0.2l-2.2-1l0.2-0.7l3.2,1.6l-0.2,0.6L4.4,26.2z
		"/>
	<path d="M8.8,21l-4-2.5L5.7,17c0.1-0.2,0.3-0.4,0.5-0.5c0.2-0.1,0.4-0.2,0.6-0.3c0.2,0,0.4-0.1,0.6,0c0.2,0,0.4,0.1,0.7,0.3
		l1.2,0.7c0.2,0.1,0.4,0.3,0.5,0.5c0.1,0.2,0.2,0.4,0.3,0.6c0,0.2,0,0.4,0,0.6c0,0.2-0.1,0.4-0.3,0.7L8.8,21z M9.1,19.2
		c0.1-0.1,0.1-0.2,0.1-0.3c0-0.1,0-0.2,0-0.4c0-0.1-0.1-0.2-0.1-0.4C9.1,18,9,17.9,8.8,17.8l-1.2-0.7C7.5,17,7.4,17,7.3,16.9
		c-0.1,0-0.3,0-0.4,0c-0.1,0-0.2,0.1-0.3,0.2c-0.1,0.1-0.2,0.2-0.2,0.3l-0.5,0.8L8.6,20L9.1,19.2z"/>
	<path d="M9.5,16.1c-0.2-0.2-0.4-0.4-0.5-0.6C9,15.3,8.9,15.1,8.9,15c0-0.2,0.1-0.4,0.1-0.5c0.1-0.2,0.2-0.3,0.3-0.4
		c0.1-0.1,0.2-0.2,0.4-0.3c0.1-0.1,0.3-0.2,0.5-0.2c0.2,0,0.4,0,0.6,0c0.2,0,0.4,0.2,0.6,0.3l0.6,0.5c0.2,0.2,0.4,0.4,0.5,0.6
		c0.1,0.2,0.1,0.4,0.1,0.6c0,0.2-0.1,0.4-0.1,0.5c-0.1,0.2-0.2,0.3-0.3,0.4c-0.1,0.1-0.2,0.2-0.4,0.3c-0.1,0.1-0.3,0.2-0.5,0.2
		c-0.2,0-0.4,0-0.6,0c-0.2,0-0.4-0.2-0.6-0.3L9.5,16.1z M10.9,14.4c-0.2-0.2-0.4-0.2-0.6-0.2c-0.2,0-0.3,0.1-0.5,0.3
		c-0.1,0.2-0.2,0.3-0.2,0.5c0,0.2,0.1,0.4,0.3,0.5l0.6,0.5c0.2,0.2,0.4,0.2,0.6,0.2c0.2,0,0.3-0.1,0.5-0.3c0.1-0.2,0.2-0.4,0.2-0.5
		c0-0.2-0.1-0.4-0.3-0.5L10.9,14.4z"/>
	<path d="M15.1,11.6c0.2,0.2,0.2,0.4,0.3,0.6c0,0.2,0,0.4,0,0.5c0,0.2-0.1,0.3-0.2,0.5c-0.1,0.1-0.2,0.3-0.3,0.4
		c-0.1,0.1-0.2,0.2-0.4,0.3c-0.2,0.1-0.3,0.1-0.5,0.2c-0.2,0-0.4,0-0.6-0.1c-0.2-0.1-0.4-0.2-0.6-0.4l-0.5-0.6
		c-0.2-0.2-0.3-0.4-0.4-0.6c-0.1-0.2-0.1-0.4,0-0.6c0-0.2,0.1-0.3,0.2-0.5c0.1-0.1,0.2-0.3,0.3-0.4c0.1-0.1,0.2-0.2,0.4-0.3
		c0.1-0.1,0.3-0.1,0.5-0.2c0.2,0,0.3,0,0.5,0c0.2,0.1,0.4,0.2,0.6,0.3l-0.5,0.5c-0.2-0.1-0.3-0.2-0.5-0.2c-0.2,0-0.3,0.1-0.4,0.2
		c-0.2,0.2-0.3,0.3-0.3,0.5c0,0.2,0.1,0.4,0.2,0.6l0.5,0.5c0.2,0.2,0.4,0.3,0.6,0.3c0.2,0,0.4-0.1,0.5-0.2c0.1-0.1,0.2-0.3,0.3-0.4
		c0-0.2,0-0.3-0.1-0.5L15.1,11.6z"/>
</g>
</svg>
