<?xml version="1.0" encoding="UTF-8"?>
<svg id="Layer_1" data-name="Layer 1" xmlns="http://www.w3.org/2000/svg" viewBox="0 0 53 53">
  <defs>
    <style>
      .cls-1 {
        fill: #fff;
      }
    </style>
  </defs>
  <circle cx="26.5" cy="26.5" r="26.5"/>
  <path class="cls-1" d="m39.61,18.13l.16,24.13-24.13.16-.22-32.88,15.35-.1,8.83,8.69Zm-9.86,1.15l-.06-8.75-13.17.09.21,30.7,21.95-.15-.15-21.95-8.78.06Zm-9.92-4.31v-1.09s6.57-.04,6.57-.04v1.09s-6.57.04-6.57.04Zm.03,4.38v-1.09s6.57-.04,6.57-.04v1.09s-6.57.04-6.57.04Zm.03,4.4v-1.09s15.34-.1,15.34-.1v1.09s-15.34.1-15.34.1Zm.03,4.4v-1.09s15.34-.1,15.34-.1v1.09s-15.34.1-15.34.1Zm.03,4.38v-1.09s15.34-.1,15.34-.1v1.09s-15.34.1-15.34.1Zm.03,4.38v-1.09s15.34-.1,15.34-.1v1.09s-15.34.1-15.34.1Zm10.8-25.93l.05,7.22,7.24-.05-7.29-7.17Z"/>
</svg>